<?xml version="1.0" standalone="no"?>
<!DOCTYPE svg PUBLIC "-//W3C//DTD SVG 20010904//EN"
 "http://www.w3.org/TR/2001/REC-SVG-20010904/DTD/svg10.dtd">
<svg version="1.0" xmlns="http://www.w3.org/2000/svg"
 width="1024.000000pt" height="1024.000000pt" viewBox="0 0 1024.000000 1024.000000"
 preserveAspectRatio="xMidYMid meet">

<g transform="translate(0.000000,1024.000000) scale(0.100000,-0.100000)"
fill="#000000" stroke="none">
<path d="M5368 9223 c7 -3 16 -2 19 1 4 3 -2 6 -13 5 -11 0 -14 -3 -6 -6z"/>
<path d="M5235 9113 c-225 -23 -410 -105 -567 -252 -125 -117 -193 -223 -242
-377 -74 -231 -74 -453 -1 -681 28 -89 96 -224 116 -234 8 -4 60 -21 116 -39
104 -32 197 -85 273 -154 21 -19 73 -51 116 -72 78 -38 80 -39 200 -39 121 0
121 0 197 39 79 40 147 96 147 121 0 11 -12 15 -39 15 -62 0 -199 47 -277 96
-74 45 -137 106 -149 143 -4 13 -18 23 -42 27 -22 4 -52 22 -79 49 -40 38 -44
46 -44 90 0 62 30 108 87 136 49 24 84 20 150 -16 l43 -23 70 93 c124 165 251
261 443 333 85 32 256 73 360 87 56 7 58 15 21 88 -149 294 -454 515 -768 556
-50 7 -92 13 -95 14 -4 2 -19 1 -36 0z"/>
<path d="M4539 9043 c-13 -16 -12 -17 4 -4 16 13 21 21 13 21 -2 0 -10 -8 -17
-17z"/>
<path d="M4679 9013 c-13 -16 -12 -17 4 -4 16 13 21 21 13 21 -2 0 -10 -8 -17
-17z"/>
<path d="M4634 8978 l-19 -23 23 19 c21 18 27 26 19 26 -2 0 -12 -10 -23 -22z"/>
<path d="M6030 8986 c0 -2 8 -10 18 -17 15 -13 16 -12 3 4 -13 16 -21 21 -21
13z"/>
<path d="M6110 8918 c24 -27 45 -48 47 -48 8 0 0 9 -44 50 l-48 45 45 -47z"/>
<path d="M4419 8923 l-24 -28 28 24 c25 23 32 31 24 31 -2 0 -14 -12 -28 -27z"/>
<path d="M4555 8908 l-40 -43 43 40 c23 21 42 40 42 42 0 8 -9 0 -45 -39z"/>
<path d="M4484 8828 l-19 -23 23 19 c21 18 27 26 19 26 -2 0 -12 -10 -23 -22z"/>
<path d="M4453 8788 c-15 -20 -25 -38 -20 -38 3 0 12 11 21 25 17 26 16 35 -1
13z"/>
<path d="M6230 8776 c0 -2 8 -10 18 -17 15 -13 16 -12 3 4 -13 16 -21 21 -21
13z"/>
<path d="M6320 8630 c6 -11 13 -20 16 -20 2 0 0 9 -6 20 -6 11 -13 20 -16 20
-2 0 0 -9 6 -20z"/>
<path d="M6380 8486 c0 -2 8 -10 18 -17 15 -13 16 -12 3 4 -13 16 -21 21 -21
13z"/>
<path d="M6430 8446 c0 -2 8 -10 18 -17 15 -13 16 -12 3 4 -13 16 -21 21 -21
13z"/>
<path d="M6228 8373 c18 -2 45 -2 60 0 15 2 0 4 -33 4 -33 0 -45 -2 -27 -4z"/>
<path d="M6128 8363 c7 -3 16 -2 19 1 4 3 -2 6 -13 5 -11 0 -14 -3 -6 -6z"/>
<path d="M6368 8283 c7 -3 16 -2 19 1 4 3 -2 6 -13 5 -11 0 -14 -3 -6 -6z"/>
<path d="M6203 8273 c15 -2 37 -2 50 0 12 2 0 4 -28 4 -27 0 -38 -2 -22 -4z"/>
<path d="M6093 8263 c9 -2 23 -2 30 0 6 3 -1 5 -18 5 -16 0 -22 -2 -12 -5z"/>
<path d="M6018 8253 c7 -3 16 -2 19 1 4 3 -2 6 -13 5 -11 0 -14 -3 -6 -6z"/>
<path d="M4261 8234 c0 -11 3 -14 6 -6 3 7 2 16 -1 19 -3 4 -6 -2 -5 -13z"/>
<path d="M5509 8133 l-24 -28 28 24 c15 14 27 26 27 28 0 8 -8 1 -31 -24z"/>
<path d="M6549 8123 c-13 -16 -12 -17 4 -4 9 7 17 15 17 17 0 8 -8 3 -21 -13z"/>
<path d="M5449 8073 l-24 -28 28 24 c25 23 32 31 24 31 -2 0 -14 -12 -28 -27z"/>
<path d="M5545 8028 l-40 -43 43 40 c39 36 47 45 39 45 -2 0 -21 -19 -42 -42z"/>
<path d="M4262 8030 c0 -14 2 -19 5 -12 2 6 2 18 0 25 -3 6 -5 1 -5 -13z"/>
<path d="M5399 8013 c-13 -16 -12 -17 4 -4 9 7 17 15 17 17 0 8 -8 3 -21 -13z"/>
<path d="M5495 7900 c10 -11 20 -20 23 -20 3 0 -3 9 -13 20 -10 11 -20 20 -23
20 -3 0 3 -9 13 -20z"/>
<path d="M6178 7783 c6 -2 18 -2 25 0 6 3 1 5 -13 5 -14 0 -19 -2 -12 -5z"/>
<path d="M6438 7753 c7 -3 16 -2 19 1 4 3 -2 6 -13 5 -11 0 -14 -3 -6 -6z"/>
<path d="M6518 7743 c7 -3 16 -2 19 1 4 3 -2 6 -13 5 -11 0 -14 -3 -6 -6z"/>
<path d="M5703 7703 c9 -2 23 -2 30 0 6 3 -1 5 -18 5 -16 0 -22 -2 -12 -5z"/>
<path d="M6013 7703 c9 -2 25 -2 35 0 9 3 1 5 -18 5 -19 0 -27 -2 -17 -5z"/>
<path d="M5230 7671 c0 -5 12 -17 28 -26 l27 -18 -24 27 c-26 28 -31 31 -31
17z"/>
<path d="M5427 7649 c7 -7 15 -10 18 -7 3 3 -2 9 -12 12 -14 6 -15 5 -6 -5z"/>
<path d="M3868 7643 c7 -3 16 -2 19 1 4 3 -2 6 -13 5 -11 0 -14 -3 -6 -6z"/>
<path d="M4128 7633 c7 -3 16 -2 19 1 4 3 -2 6 -13 5 -11 0 -14 -3 -6 -6z"/>
<path d="M5693 7603 c15 -2 37 -2 50 0 12 2 0 4 -28 4 -27 0 -38 -2 -22 -4z"/>
<path d="M6601 7584 c0 -11 3 -14 6 -6 3 7 2 16 -1 19 -3 4 -6 -2 -5 -13z"/>
<path d="M6502 7570 c0 -14 2 -19 5 -12 2 6 2 18 0 25 -3 6 -5 1 -5 -13z"/>
<path d="M6692 7565 c0 -16 2 -22 5 -12 2 9 2 23 0 30 -3 6 -5 -1 -5 -18z"/>
<path d="M3798 7523 c7 -3 16 -2 19 1 4 3 -2 6 -13 5 -11 0 -14 -3 -6 -6z"/>
<path d="M5508 7523 c7 -3 16 -2 19 1 4 3 -2 6 -13 5 -11 0 -14 -3 -6 -6z"/>
<path d="M4168 7513 c6 -2 18 -2 25 0 6 3 1 5 -13 5 -14 0 -19 -2 -12 -5z"/>
<path d="M4430 7500 c6 -11 13 -20 16 -20 2 0 0 9 -6 20 -6 11 -13 20 -16 20
-2 0 0 -9 6 -20z"/>
<path d="M6592 7500 c0 -14 2 -19 5 -12 2 6 2 18 0 25 -3 6 -5 1 -5 -13z"/>
<path d="M4248 7503 c7 -3 16 -2 19 1 4 3 -2 6 -13 5 -11 0 -14 -3 -6 -6z"/>
<path d="M4298 7493 c7 -3 16 -2 19 1 4 3 -2 6 -13 5 -11 0 -14 -3 -6 -6z"/>
<path d="M6491 7484 c0 -11 3 -14 6 -6 3 7 2 16 -1 19 -3 4 -6 -2 -5 -13z"/>
<path d="M6401 7474 c0 -11 3 -14 6 -6 3 7 2 16 -1 19 -3 4 -6 -2 -5 -13z"/>
<path d="M4438 7463 c7 -3 16 -2 19 1 4 3 -2 6 -13 5 -11 0 -14 -3 -6 -6z"/>
<path d="M3779 7405 c-252 -40 -401 -106 -520 -232 -98 -104 -146 -182 -190
-314 -38 -113 -37 -130 4 -154 111 -65 269 -197 352 -294 33 -39 63 -71 68
-71 5 0 39 27 75 61 85 77 265 198 363 243 206 95 427 103 589 21 128 -65 242
-268 239 -425 -1 -30 -4 -45 -6 -33 -2 12 -11 27 -19 33 -8 7 -14 28 -14 46 0
20 -5 35 -12 35 -7 1 -20 3 -28 4 -8 1 -20 3 -27 4 -6 0 -13 13 -15 29 -2 16
-9 27 -18 27 -8 0 -18 4 -22 10 -15 21 -16 -3 -1 -55 8 -30 15 -91 16 -134 l2
-80 -90 -74 c-107 -87 -240 -155 -336 -171 -36 -6 -69 -11 -73 -11 -5 0 -5 28
-2 63 4 34 2 96 -4 137 -9 70 -13 78 -50 111 l-41 35 73 70 c88 84 159 136
250 184 73 39 76 52 17 77 -23 10 -34 6 -105 -40 -43 -28 -127 -99 -187 -157
-106 -104 -108 -105 -150 -102 -61 5 -125 -15 -159 -48 -26 -27 -28 -34 -28
-112 0 -79 -2 -88 -36 -144 -20 -32 -62 -101 -92 -151 -39 -64 -62 -93 -75
-93 -10 0 -66 7 -123 16 l-105 17 6 26 c4 20 3 22 -5 11 -5 -8 -10 -23 -10
-33 0 -22 -63 -84 -81 -80 -8 2 25 -16 72 -40 l85 -42 -22 -50 c-28 -62 -30
-79 -4 -40 l20 30 0 -38 0 -38 46 3 c46 3 47 4 66 55 l19 52 79 -1 c46 -1 85
4 93 10 8 7 19 31 26 54 7 24 41 104 77 179 56 117 66 147 73 216 5 44 11 86
15 92 11 18 72 13 97 -8 23 -19 24 -25 24 -158 1 -76 4 -145 8 -154 20 -41
102 -49 242 -24 105 19 216 74 330 166 127 102 175 118 175 59 0 -35 -54 -125
-107 -182 -58 -60 -222 -178 -249 -178 -8 0 -14 -4 -14 -9 0 -27 171 43 287
118 34 22 65 36 67 32 7 -11 -11 -116 -24 -141 -18 -35 -2 -22 26 19 17 27 34
41 52 43 l27 3 2 113 c1 82 6 119 16 130 8 10 18 31 22 47 8 27 9 27 12 8 3
-12 -5 -43 -17 -69 -17 -41 -19 -53 -9 -82 18 -53 4 -154 -30 -231 -17 -36
-44 -102 -61 -145 -86 -220 -296 -482 -496 -618 -32 -21 -61 -41 -63 -43 -7
-7 81 -41 154 -60 63 -16 122 -17 574 -16 402 2 509 5 530 16 45 23 161 127
244 218 l80 87 -18 39 c-21 47 -22 109 -1 148 8 16 73 84 146 152 72 68 129
125 127 128 -5 4 -56 10 -182 19 l-89 6 79 32 c428 173 635 385 786 806 l38
105 0 -115 c1 -63 -4 -166 -10 -229 -6 -62 -9 -115 -7 -117 2 -2 44 35 93 81
160 151 279 226 440 280 l90 30 3 105 c7 243 -96 447 -293 579 -74 49 -198
103 -267 116 -34 6 -38 5 -53 -27 -53 -104 -108 -138 -225 -137 -41 0 -97 4
-123 8 -46 8 -51 6 -89 -26 -75 -63 -143 -83 -277 -83 l-78 0 -33 -51 c-71
-110 -353 -369 -401 -369 -22 0 -174 85 -279 155 -121 81 -214 171 -320 310
-200 260 -294 344 -424 383 -171 49 -427 65 -607 37z m1053 -1282 c26 -23 23
-43 -7 -43 -21 0 -25 5 -25 30 0 34 6 37 32 13z"/>
<path d="M6672 7400 c0 -14 2 -19 5 -12 2 6 2 18 0 25 -3 6 -5 1 -5 -13z"/>
<path d="M3100 7323 l-55 -58 58 55 c53 50 62 60 54 60 -1 0 -27 -26 -57 -57z"/>
<path d="M3195 7258 l-50 -53 53 50 c48 46 57 55 49 55 -1 0 -25 -24 -52 -52z"/>
<path d="M4867 7209 c4 -13 8 -18 11 -10 2 7 -1 18 -6 23 -8 8 -9 4 -5 -13z"/>
<path d="M4935 7160 c10 -11 20 -20 23 -20 3 0 -3 9 -13 20 -10 11 -20 20 -23
20 -3 0 3 -9 13 -20z"/>
<path d="M6208 7173 c7 -3 16 -2 19 1 4 3 -2 6 -13 5 -11 0 -14 -3 -6 -6z"/>
<path d="M6258 7163 c6 -2 18 -2 25 0 6 3 1 5 -13 5 -14 0 -19 -2 -12 -5z"/>
<path d="M6353 7153 c9 -2 23 -2 30 0 6 3 -1 5 -18 5 -16 0 -22 -2 -12 -5z"/>
<path d="M4995 7110 c10 -11 20 -20 23 -20 3 0 -3 9 -13 20 -10 11 -20 20 -23
20 -3 0 3 -9 13 -20z"/>
<path d="M4911 7095 c0 -5 6 -21 14 -35 8 -14 14 -20 14 -15 0 6 -6 21 -14 35
-8 14 -14 21 -14 15z"/>
<path d="M7120 7097 c0 -2 15 -16 33 -33 l32 -29 -29 33 c-28 30 -36 37 -36
29z"/>
<path d="M5963 7073 c9 -2 23 -2 30 0 6 3 -1 5 -18 5 -16 0 -22 -2 -12 -5z"/>
<path d="M5070 7056 c0 -2 8 -10 18 -17 15 -13 16 -12 3 4 -13 16 -21 21 -21
13z"/>
<path d="M4940 7026 c0 -2 8 -10 18 -17 15 -13 16 -12 3 4 -13 16 -21 21 -21
13z"/>
<path d="M7190 7016 c0 -2 8 -10 18 -17 15 -13 16 -12 3 4 -13 16 -21 21 -21
13z"/>
<path d="M4988 6965 c11 -16 44 -52 73 -80 49 -46 49 -45 -11 20 -85 94 -86
95 -62 60z"/>
<path d="M7266 6907 c3 -10 9 -15 12 -12 3 3 0 11 -7 18 -10 9 -11 8 -5 -6z"/>
<path d="M5200 6776 c0 -3 9 -10 20 -16 11 -6 20 -8 20 -6 0 3 -9 10 -20 16
-11 6 -20 8 -20 6z"/>
<path d="M2941 6744 c0 -11 3 -14 6 -6 3 7 2 16 -1 19 -3 4 -6 -2 -5 -13z"/>
<path d="M5321 6734 c0 -11 3 -14 6 -6 3 7 2 16 -1 19 -3 4 -6 -2 -5 -13z"/>
<path d="M2674 6704 c-18 -14 -18 -15 4 -4 12 6 22 13 22 15 0 8 -5 6 -26 -11z"/>
<path d="M2908 6704 c-38 -20 -36 -28 2 -9 17 9 30 18 30 20 0 7 -1 6 -32 -11z"/>
<path d="M2970 6576 c0 -2 7 -7 16 -10 8 -3 12 -2 9 4 -6 10 -25 14 -25 6z"/>
<path d="M4215 6540 c-27 -7 -27 -8 -5 -8 14 0 39 4 55 8 27 7 27 8 5 8 -14 0
-38 -4 -55 -8z"/>
<path d="M4148 6523 c6 -2 18 -2 25 0 6 3 1 5 -13 5 -14 0 -19 -2 -12 -5z"/>
<path d="M2379 6503 c-13 -16 -12 -17 4 -4 9 7 17 15 17 17 0 8 -8 3 -21 -13z"/>
<path d="M4108 6513 c7 -3 16 -2 19 1 4 3 -2 6 -13 5 -11 0 -14 -3 -6 -6z"/>
<path d="M4425 6515 c23 -8 83 -10 79 -3 -3 4 -24 8 -47 7 -23 0 -37 -2 -32
-4z"/>
<path d="M4068 6503 c7 -3 16 -2 19 1 4 3 -2 6 -13 5 -11 0 -14 -3 -6 -6z"/>
<path d="M2329 6463 c-13 -16 -12 -17 4 -4 16 13 21 21 13 21 -2 0 -10 -8 -17
-17z"/>
<path d="M3960 6470 c-8 -5 -10 -10 -5 -10 6 0 17 5 25 10 8 5 11 10 5 10 -5
0 -17 -5 -25 -10z"/>
<path d="M4546 6467 c3 -10 9 -15 12 -12 3 3 0 11 -7 18 -10 9 -11 8 -5 -6z"/>
<path d="M3888 6439 c-21 -11 -38 -22 -38 -24 0 -5 79 32 89 41 12 11 -18 1
-51 -17z"/>
<path d="M3803 6390 c-18 -11 -33 -22 -33 -25 0 -2 16 5 35 16 19 12 35 23 35
25 0 6 -3 5 -37 -16z"/>
<path d="M2205 6348 l-50 -53 53 50 c48 46 57 55 49 55 -1 0 -25 -24 -52 -52z"/>
<path d="M2389 6363 l-24 -28 28 24 c25 23 32 31 24 31 -2 0 -14 -12 -28 -27z"/>
<path d="M3734 6344 c-18 -14 -18 -15 4 -4 12 6 22 13 22 15 0 8 -5 6 -26 -11z"/>
<path d="M2285 6268 l-50 -53 53 50 c48 46 57 55 49 55 -1 0 -25 -24 -52 -52z"/>
<path d="M3669 6303 c-13 -16 -12 -17 4 -4 16 13 21 21 13 21 -2 0 -10 -8 -17
-17z"/>
<path d="M3629 6273 c-13 -16 -12 -17 4 -4 9 7 17 15 17 17 0 8 -8 3 -21 -13z"/>
<path d="M7430 6286 c0 -2 8 -10 18 -17 15 -13 16 -12 3 4 -13 16 -21 21 -21
13z"/>
<path d="M2454 6258 l-19 -23 23 19 c12 11 22 21 22 23 0 8 -8 2 -26 -19z"/>
<path d="M2109 6243 l-24 -28 28 24 c25 23 32 31 24 31 -2 0 -14 -12 -28 -27z"/>
<path d="M3540 6193 l-55 -58 58 55 c53 50 62 60 54 60 -1 0 -27 -26 -57 -57z"/>
<path d="M7185 6230 c-3 -6 1 -7 9 -4 18 7 21 14 7 14 -6 0 -13 -4 -16 -10z"/>
<path d="M7530 6195 c19 -19 36 -35 39 -35 3 0 -10 16 -29 35 -19 19 -36 35
-39 35 -3 0 10 -16 29 -35z"/>
<path d="M2374 6178 l-19 -23 23 19 c12 11 22 21 22 23 0 8 -8 2 -26 -19z"/>
<path d="M7740 6126 c0 -2 8 -10 18 -17 15 -13 16 -12 3 4 -13 16 -21 21 -21
13z"/>
<path d="M3459 6103 c-13 -16 -12 -17 4 -4 9 7 17 15 17 17 0 8 -8 3 -21 -13z"/>
<path d="M7620 6095 c13 -14 26 -25 28 -25 3 0 -5 11 -18 25 -13 14 -26 25
-28 25 -3 0 5 -11 18 -25z"/>
<path d="M7450 6097 c0 -2 15 -16 33 -33 l32 -29 -29 33 c-28 30 -36 37 -36
29z"/>
<path d="M7680 6025 c13 -14 26 -25 28 -25 3 0 -5 11 -18 25 -13 14 -26 25
-28 25 -3 0 5 -11 18 -25z"/>
<path d="M6995 5970 c10 -11 20 -20 23 -20 3 0 -3 9 -13 20 -10 11 -20 20 -23
20 -3 0 3 -9 13 -20z"/>
<path d="M3375 5969 c-4 -6 -5 -12 -2 -15 2 -3 7 2 10 11 7 17 1 20 -8 4z"/>
<path d="M7730 5956 c0 -2 8 -10 18 -17 15 -13 16 -12 3 4 -13 16 -21 21 -21
13z"/>
<path d="M7102 5885 c15 -16 29 -27 31 -24 3 2 -10 15 -27 28 l-31 24 27 -28z"/>
<path d="M7158 5853 c7 -3 16 -2 19 1 4 3 -2 6 -13 5 -11 0 -14 -3 -6 -6z"/>
<path d="M1902 5620 c0 -14 2 -19 5 -12 2 6 2 18 0 25 -3 6 -5 1 -5 -13z"/>
<path d="M1902 5570 c0 -14 2 -19 5 -12 2 6 2 18 0 25 -3 6 -5 1 -5 -13z"/>
<path d="M4640 5559 c-35 -31 -35 -31 -3 -9 18 11 35 25 38 30 10 16 2 11 -35
-21z"/>
<path d="M6989 5563 l-24 -28 28 24 c15 14 27 26 27 28 0 8 -8 1 -31 -24z"/>
<path d="M4574 5514 c-18 -14 -18 -15 4 -4 12 6 22 13 22 15 0 8 -5 6 -26 -11z"/>
<path d="M6860 5443 l-55 -58 58 55 c31 30 57 56 57 57 0 8 -10 -1 -60 -54z"/>
<path d="M6588 5473 c7 -3 16 -2 19 1 4 3 -2 6 -13 5 -11 0 -14 -3 -6 -6z"/>
<path d="M4611 5463 c3 -20 -3 -34 -28 -65 -23 -27 -23 -30 -4 -13 21 18 51
65 51 80 0 3 -4 5 -10 5 -5 0 -9 -3 -9 -7z"/>
<path d="M6169 5453 c-13 -16 -12 -17 4 -4 9 7 17 15 17 17 0 8 -8 3 -21 -13z"/>
<path d="M6360 5450 c8 -5 20 -10 25 -10 6 0 3 5 -5 10 -8 5 -19 10 -25 10 -5
0 -3 -5 5 -10z"/>
<path d="M4498 5433 c7 -3 16 -2 19 1 4 3 -2 6 -13 5 -11 0 -14 -3 -6 -6z"/>
<path d="M4383 5423 c9 -2 23 -2 30 0 6 3 -1 5 -18 5 -16 0 -22 -2 -12 -5z"/>
<path d="M6089 5383 l-24 -28 28 24 c15 14 27 26 27 28 0 8 -8 1 -31 -24z"/>
<path d="M7779 5383 l-24 -28 28 24 c15 14 27 26 27 28 0 8 -8 1 -31 -24z"/>
<path d="M6845 5330 c10 -11 20 -20 23 -20 3 0 -3 9 -13 20 -10 11 -20 20 -23
20 -3 0 3 -9 13 -20z"/>
<path d="M4460 5310 c-19 -11 -31 -19 -27 -20 11 0 67 29 67 35 0 7 -1 7 -40
-15z"/>
<path d="M5994 5298 l-19 -23 23 19 c21 18 27 26 19 26 -2 0 -12 -10 -23 -22z"/>
<path d="M6755 5260 c21 -22 41 -40 44 -40 3 0 -13 18 -34 40 -21 22 -41 40
-44 40 -3 0 13 -18 34 -40z"/>
<path d="M6189 5269 l-24 -20 28 17 c15 9 27 18 27 20 0 8 -8 4 -31 -17z"/>
<path d="M2858 5273 c7 -3 16 -2 19 1 4 3 -2 6 -13 5 -11 0 -14 -3 -6 -6z"/>
<path d="M2050 5266 c0 -2 8 -10 18 -17 15 -13 16 -12 3 4 -13 16 -21 21 -21
13z"/>
<path d="M4325 5250 c-19 -8 -19 -9 2 -9 12 -1 25 4 28 9 7 12 -2 12 -30 0z"/>
<path d="M4388 5243 c6 -2 18 -2 25 0 6 3 1 5 -13 5 -14 0 -19 -2 -12 -5z"/>
<path d="M3508 5213 c7 -3 16 -2 19 1 4 3 -2 6 -13 5 -11 0 -14 -3 -6 -6z"/>
<path d="M7919 5203 c-13 -16 -12 -17 4 -4 9 7 17 15 17 17 0 8 -8 3 -21 -13z"/>
<path d="M3620 5175 c13 -14 26 -25 28 -25 3 0 -5 11 -18 25 -13 14 -26 25
-28 25 -3 0 5 -11 18 -25z"/>
<path d="M5895 5189 c-4 -6 -5 -12 -2 -15 2 -3 7 2 10 11 7 17 1 20 -8 4z"/>
<path d="M2000 5166 c0 -2 8 -10 18 -17 15 -13 16 -12 3 4 -13 16 -21 21 -21
13z"/>
<path d="M5882 5130 c0 -19 2 -27 5 -17 2 9 2 25 0 35 -3 9 -5 1 -5 -18z"/>
<path d="M6009 5103 c-13 -16 -12 -17 4 -4 9 7 17 15 17 17 0 8 -8 3 -21 -13z"/>
<path d="M4008 5103 c7 -3 16 -2 19 1 4 3 -2 6 -13 5 -11 0 -14 -3 -6 -6z"/>
<path d="M7974 5088 l-19 -23 23 19 c12 11 22 21 22 23 0 8 -8 2 -26 -19z"/>
<path d="M2140 5066 c0 -3 9 -10 20 -16 11 -6 20 -8 20 -6 0 3 -9 10 -20 16
-11 6 -20 8 -20 6z"/>
<path d="M6239 5023 c-13 -16 -12 -17 4 -4 9 7 17 15 17 17 0 8 -8 3 -21 -13z"/>
<path d="M7879 5003 c-13 -16 -12 -17 4 -4 9 7 17 15 17 17 0 8 -8 3 -21 -13z"/>
<path d="M6000 4971 c0 -11 4 -22 9 -25 4 -3 6 6 3 19 -5 30 -12 33 -12 6z"/>
<path d="M6209 4903 c-13 -16 -12 -17 4 -4 16 13 21 21 13 21 -2 0 -10 -8 -17
-17z"/>
<path d="M2588 4893 c7 -3 16 -2 19 1 4 3 -2 6 -13 5 -11 0 -14 -3 -6 -6z"/>
<path d="M2818 4863 c6 -2 18 -2 25 0 6 3 1 5 -13 5 -14 0 -19 -2 -12 -5z"/>
<path d="M6834 4838 l-19 -23 23 19 c12 11 22 21 22 23 0 8 -8 2 -26 -19z"/>
<path d="M6212 4804 c10 -10 20 -16 22 -13 3 3 -5 11 -17 18 -21 13 -21 12 -5
-5z"/>
<path d="M6959 4733 c-13 -16 -12 -17 4 -4 9 7 17 15 17 17 0 8 -8 3 -21 -13z"/>
<path d="M7188 4683 c7 -3 16 -2 19 1 4 3 -2 6 -13 5 -11 0 -14 -3 -6 -6z"/>
<path d="M3738 4513 c7 -3 16 -2 19 1 4 3 -2 6 -13 5 -11 0 -14 -3 -6 -6z"/>
<path d="M3733 4440 c0 -25 2 -35 4 -22 2 12 2 32 0 45 -2 12 -4 2 -4 -23z"/>
<path d="M4792 4443 c-2 -30 -7 -43 -19 -46 -17 -4 -17 -5 0 -6 22 -1 30 17
24 61 -3 30 -4 30 -5 -9z"/>
<path d="M5920 4281 c0 -6 4 -13 10 -16 6 -3 7 1 4 9 -7 18 -14 21 -14 7z"/>
<path d="M6402 4220 c0 -14 2 -19 5 -12 2 6 2 18 0 25 -3 6 -5 1 -5 -13z"/>
<path d="M5248 4183 c7 -3 16 -2 19 1 4 3 -2 6 -13 5 -11 0 -14 -3 -6 -6z"/>
<path d="M5293 4183 c9 -2 23 -2 30 0 6 3 -1 5 -18 5 -16 0 -22 -2 -12 -5z"/>
<path d="M5891 4144 c0 -11 3 -14 6 -6 3 7 2 16 -1 19 -3 4 -6 -2 -5 -13z"/>
<path d="M5893 4040 c0 -41 2 -58 4 -37 2 20 2 54 0 75 -2 20 -4 3 -4 -38z"/>
<path d="M4608 4073 c34 -2 90 -2 125 0 34 2 6 3 -63 3 -69 0 -97 -1 -62 -3z"/>
<path d="M5288 4073 c7 -3 16 -2 19 1 4 3 -2 6 -13 5 -11 0 -14 -3 -6 -6z"/>
<path d="M4022 3980 c0 -14 2 -19 5 -12 2 6 2 18 0 25 -3 6 -5 1 -5 -13z"/>
<path d="M5772 3980 c0 -14 2 -19 5 -12 2 6 2 18 0 25 -3 6 -5 1 -5 -13z"/>
<path d="M3975 3774 c-97 -24 -136 -54 -164 -128 -18 -50 -20 -82 -22 -517 -2
-451 -2 -465 18 -504 54 -105 133 -122 433 -94 147 13 182 23 226 61 53 47 64
83 64 217 l0 116 -97 -3 c-171 -5 -154 4 -156 -79 -2 -42 -8 -78 -15 -85 -9
-9 -45 -13 -110 -13 l-97 0 -3 385 c-2 353 -1 386 15 398 25 18 187 16 202 -2
8 -9 12 -43 10 -88 -1 -58 1 -72 12 -70 8 2 63 18 122 35 128 36 130 39 125
164 -3 71 -7 86 -33 124 -56 79 -71 84 -305 86 -113 1 -214 -1 -225 -3z"/>
<path d="M6712 3769 c-43 -5 -95 -37 -122 -73 -37 -50 -38 -73 -39 -566 -1
-451 1 -488 18 -526 22 -48 78 -97 130 -112 68 -21 314 -54 408 -56 78 -1 95
2 119 20 64 47 69 62 72 223 l4 148 -78 6 c-42 4 -101 7 -131 7 l-53 0 0 -90
0 -90 -43 0 c-62 0 -159 20 -177 37 -13 12 -15 70 -17 381 -2 202 1 387 5 412
l8 45 94 -3 c130 -5 130 -5 130 -107 l0 -85 38 0 c22 0 80 -3 130 -6 l92 -7 0
132 c0 144 -10 184 -58 234 -15 16 -40 35 -55 43 -42 22 -381 46 -475 33z"/>
<path d="M2980 3763 c0 -5 7 -16 15 -26 32 -43 28 -87 -39 -424 -36 -180 -83
-425 -106 -543 -56 -299 -60 -312 -80 -341 -11 -15 -17 -29 -14 -32 2 -2 24
-1 47 3 23 5 98 13 166 19 69 6 126 13 128 15 2 1 -4 19 -12 39 -17 42 -19
102 -5 167 22 101 3 90 155 90 73 0 136 -4 139 -9 4 -5 9 -43 12 -83 6 -62 3
-82 -14 -121 l-21 -47 22 0 c57 1 330 20 334 23 2 3 -6 20 -17 40 -21 35 -50
167 -200 920 l-64 317 -223 0 c-123 0 -223 -3 -223 -7z m310 -554 c22 -123 43
-234 46 -246 4 -23 3 -23 -96 -23 -92 0 -101 2 -96 18 2 9 24 128 48 264 25
147 46 240 50 229 3 -10 25 -119 48 -242z"/>
<path d="M4630 3761 c0 -5 7 -14 16 -22 8 -7 24 -30 35 -50 18 -36 19 -64 19
-551 -1 -426 -3 -517 -15 -538 -8 -14 -14 -28 -15 -32 0 -5 79 -8 175 -8 l176
0 -26 43 c-24 42 -25 49 -27 245 -1 111 1 205 6 209 9 10 212 15 244 6 22 -5
22 -7 22 -199 0 -201 -7 -242 -43 -273 -10 -7 -17 -17 -17 -22 0 -5 83 -9 185
-9 102 0 185 3 185 6 0 3 -10 20 -22 37 l-23 32 -3 521 -3 520 25 47 25 47
-184 0 c-102 0 -185 -4 -185 -8 0 -5 9 -17 20 -27 32 -29 40 -80 40 -263 l0
-173 -136 3 -137 3 2 180 c1 170 3 183 26 228 14 27 25 51 25 53 0 2 -88 4
-195 4 -107 0 -195 -4 -195 -9z"/>
<path d="M5670 3764 c0 -3 10 -20 23 -37 22 -32 22 -32 25 -517 2 -267 0 -504
-3 -527 -3 -23 -17 -58 -31 -78 -13 -20 -24 -37 -24 -39 0 -4 37 -7 400 -31
124 -8 251 -17 283 -20 l57 -6 0 116 0 115 -138 0 c-77 0 -173 3 -215 6 l-77
7 0 138 0 139 165 0 166 0 -3 118 -3 117 -162 3 -163 2 0 136 0 136 210 -4
211 -3 -3 115 -3 115 -357 3 c-197 1 -358 0 -358 -4z"/>
<path d="M1980 3755 c0 -3 7 -27 15 -53 14 -41 15 -137 13 -717 -3 -623 -4
-673 -21 -698 -17 -27 -17 -27 5 -27 19 0 151 16 286 36 38 6 38 8 12 59 -18
36 -20 59 -20 256 l0 217 108 6 c215 14 296 39 351 108 46 57 50 86 51 363 0
335 -7 363 -112 421 l-53 29 -317 3 c-175 2 -318 1 -318 -3z m540 -264 c14
-27 13 -363 -1 -395 -14 -29 -43 -36 -160 -36 l-89 0 0 225 0 225 120 0 c108
0 120 -2 130 -19z"/>
<path d="M7630 3751 c-71 -15 -111 -45 -146 -111 -18 -33 -19 -66 -19 -570 0
-531 0 -535 22 -576 31 -57 84 -101 146 -118 118 -34 404 -73 460 -62 49 9
101 56 115 104 16 51 17 1129 2 1184 -26 92 -98 135 -241 143 -204 11 -306 13
-339 6z m323 -253 c16 -12 17 -49 15 -467 -3 -400 -5 -455 -19 -464 -9 -6 -49
-7 -103 -2 -138 11 -126 -33 -126 483 0 327 3 441 12 450 17 17 198 16 221 0z"/>
<path d="M8473 3165 c0 -22 2 -30 4 -17 2 12 2 30 0 40 -3 9 -5 -1 -4 -23z"/>
<path d="M8472 3065 c0 -16 2 -22 5 -12 2 9 2 23 0 30 -3 6 -5 -1 -5 -18z"/>
<path d="M8471 2974 c0 -11 3 -14 6 -6 3 7 2 16 -1 19 -3 4 -6 -2 -5 -13z"/>
<path d="M8472 2830 c0 -19 2 -27 5 -17 2 9 2 25 0 35 -3 9 -5 1 -5 -18z"/>
<path d="M8471 2674 c0 -11 3 -14 6 -6 3 7 2 16 -1 19 -3 4 -6 -2 -5 -13z"/>
<path d="M8472 2620 c0 -19 2 -27 5 -17 2 9 2 25 0 35 -3 9 -5 1 -5 -18z"/>
<path d="M3048 2163 c6 -2 18 -2 25 0 6 3 1 5 -13 5 -14 0 -19 -2 -12 -5z"/>
<path d="M2928 2143 c7 -3 16 -2 19 1 4 3 -2 6 -13 5 -11 0 -14 -3 -6 -6z"/>
<path d="M3595 2121 c11 -10 103 -70 205 -133 204 -127 538 -340 965 -615 154
-99 298 -190 320 -203 l40 -23 195 125 c107 69 247 159 310 200 63 41 237 154
385 250 472 305 615 400 615 409 0 5 -644 9 -1527 9 -1495 0 -1527 0 -1508
-19z"/>
<path d="M2818 2123 c7 -3 16 -2 19 1 4 3 -2 6 -13 5 -11 0 -14 -3 -6 -6z"/>
<path d="M2598 2083 c7 -3 16 -2 19 1 4 3 -2 6 -13 5 -11 0 -14 -3 -6 -6z"/>
<path d="M7618 2083 c7 -3 16 -2 19 1 4 3 -2 6 -13 5 -11 0 -14 -3 -6 -6z"/>
<path d="M8473 2040 c0 -25 2 -35 4 -22 2 12 2 32 0 45 -2 12 -4 2 -4 -23z"/>
<path d="M2168 2003 c7 -3 16 -2 19 1 4 3 -2 6 -13 5 -11 0 -14 -3 -6 -6z"/>
<path d="M8048 2003 c7 -3 16 -2 19 1 4 3 -2 6 -13 5 -11 0 -14 -3 -6 -6z"/>
</g>
</svg>
